<?xml version="1.0" standalone="no"?>
<!DOCTYPE svg PUBLIC "-//W3C//DTD SVG 20010904//EN"
 "http://www.w3.org/TR/2001/REC-SVG-20010904/DTD/svg10.dtd">
<svg version="1.0" xmlns="http://www.w3.org/2000/svg"
 width="120.000000pt" height="120.000000pt" viewBox="0 0 120.000000 120.000000"
 preserveAspectRatio="xMidYMid meet">
<metadata>
Created by potrace 1.11, written by Peter Selinger 2001-2013
</metadata>
<g transform="translate(0.000000,120.000000) scale(0.100000,-0.100000)"
fill="#000000" stroke="none">
<path d="M664 1122 c-13 -7 -54 -16 -90 -19 -53 -5 -72 -12 -107 -39 -23 -19
-55 -36 -72 -40 -16 -3 -44 -17 -62 -30 -17 -13 -58 -35 -90 -49 -71 -32 -128
-93 -119 -130 3 -13 26 -46 51 -72 25 -26 45 -53 45 -59 0 -6 15 -23 32 -37
56 -42 162 -163 172 -193 3 -11 21 -28 39 -37 37 -20 89 -57 130 -91 19 -17
25 -30 20 -43 -3 -10 -3 -15 1 -11 11 9 46 -23 39 -35 -3 -6 -1 -7 6 -3 6 4
14 0 17 -8 3 -9 10 -13 15 -10 5 3 13 -5 18 -18 6 -13 10 -19 10 -13 1 5 27
-18 59 -52 102 -110 147 -91 123 52 -7 41 -10 79 -6 84 3 6 5 52 5 103 -2 125
-2 155 -2 283 0 61 0 126 0 145 -1 19 0 60 1 90 2 100 -11 219 -26 232 -20 16
-177 16 -209 0z"/>
</g>
</svg>
